#define 3a7a6343a4fd4192f9205c693e2a4d91_width 20
#define 3a7a6343a4fd4192f9205c693e2a4d91_height 20
static char 3a7a6343a4fd4192f9205c693e2a4d91_bits[] = {
  0x00, 0x00, 0x00, 0x00, 0xF0, 0x01, 0xC0, 0x1F, 0x03, 0x70, 0x00, 0x06, 
  0x1C, 0x00, 0x06, 0x06, 0x78, 0x06, 0x02, 0x4E, 0x04, 0x02, 0x62, 0x04, 
  0x02, 0x66, 0x06, 0x06, 0x24, 0x03, 0x04, 0xBC, 0x01, 0x04, 0x80, 0x00, 
  0x04, 0x80, 0x01, 0x04, 0x00, 0x03, 0x0C, 0x00, 0x02, 0x08, 0x00, 0x02, 
  0x08, 0x00, 0x03, 0x18, 0xFF, 0x01, 0xF0, 0x01, 0x00, 0x00, 0x00, 0x00, 
  };
